<svg width="56" height="33" viewBox="0 0 56 33" fill="none" xmlns="http://www.w3.org/2000/svg">
<path d="M0.000115246 32.2422V0.000185192H5.07612L19.7871 20.2102C19.9751 20.3982 20.1788 20.6645 20.3981 21.0092C20.6488 21.3539 20.8838 21.6985 21.1031 22.0432C21.3224 22.3879 21.4791 22.6699 21.5731 22.8892H21.8081C21.8081 22.4192 21.8081 21.9649 21.8081 21.5262C21.8081 21.0875 21.8081 20.6489 21.8081 20.2102V0.000185192H26.8841V32.2422H21.9961L7.09712 11.7972C6.84645 11.4212 6.53312 10.9512 6.15712 10.3872C5.78112 9.79185 5.49912 9.33752 5.31112 9.02419H5.07612C5.07612 9.46285 5.07612 9.91719 5.07612 10.3872C5.07612 10.8259 5.07612 11.2959 5.07612 11.7972V32.2422H0.000115246ZM37.5707 32.2422C37.5707 29.4535 37.9154 26.7589 38.6047 24.1582C39.2941 21.5262 40.2184 19.0352 41.3777 16.6852C42.5684 14.3039 43.8531 12.0949 45.2317 10.0582C46.6417 7.99019 48.0361 6.14152 49.4147 4.51219H32.6827V0.000185192H55.5247V3.14919C54.4281 4.46519 53.2844 5.92219 52.0937 7.52019C50.9031 9.08685 49.7594 10.7632 48.6627 12.5492C47.5661 14.3352 46.5791 16.1839 45.7017 18.0952C44.8557 20.0065 44.1821 21.9649 43.6807 23.9702C43.1794 25.9442 42.9287 27.9339 42.9287 29.9392V32.2422H37.5707Z" fill="url(#paint0_linear_4_258)"/>
<defs>
<linearGradient id="paint0_linear_4_258" x1="11.0275" y1="-70.8109" x2="78.2632" y2="-48.7218" gradientUnits="userSpaceOnUse">
<stop stop-color="#00B4FD"/>
<stop offset="1" stop-color="#003ACE"/>
</linearGradient>
</defs>
</svg>
